<?xml version="1.0" encoding="UTF-8"?>
<svg xmlns="http://www.w3.org/2000/svg" xmlns:xlink="http://www.w3.org/1999/xlink" width="69pt" height="46pt" viewBox="0 0 69 46" version="1.1">
<g id="surface1">
<path style=" stroke:none;fill-rule:nonzero;fill:rgb(0%,44.313725%,77.254902%);fill-opacity:1;" d="M 20.421875 19.5 L 20.421875 30.621094 L 16.898438 30.621094 L 16.898438 16.640625 L 24.175781 16.648438 C 27.265625 16.648438 28.316406 18.835938 28.316406 20.828125 L 28.316406 30.621094 L 24.800781 30.621094 L 24.800781 20.84375 C 24.800781 20.011719 24.371094 19.5 23.335938 19.5 Z M 44.382812 19.332031 C 43.175781 19.332031 42.246094 19.953125 41.855469 20.796875 C 41.625 21.304688 41.546875 21.695312 41.519531 22.316406 L 46.9375 22.316406 C 46.871094 20.796875 46.183594 19.332031 44.382812 19.332031 M 41.519531 24.726562 C 41.519531 26.535156 42.640625 27.871094 44.640625 27.871094 C 46.195312 27.871094 46.96875 27.4375 47.867188 26.535156 L 50.042969 28.625 C 48.652344 30.007812 47.1875 30.847656 44.613281 30.847656 C 41.242188 30.847656 38.011719 29 38.011719 23.613281 C 38.011719 19.007812 40.832031 16.402344 44.535156 16.402344 C 48.289062 16.402344 50.457031 19.453125 50.457031 23.449219 L 50.457031 24.726562 L 41.519531 24.726562 M 35.039062 30.605469 C 32.167969 30.605469 30.949219 28.597656 30.949219 26.613281 L 30.949219 12.832031 L 34.46875 12.832031 L 34.46875 16.640625 L 37.121094 16.640625 L 37.121094 19.5 L 34.46875 19.5 L 34.46875 26.390625 C 34.46875 27.203125 34.851562 27.65625 35.6875 27.65625 L 37.121094 27.65625 L 37.121094 30.605469 L 35.039062 30.605469 M 13.765625 14.707031 L 10.21875 14.707031 L 10.21875 11.320312 L 13.765625 11.320312 Z M 13.773438 30.769531 C 11.117188 30.511719 10.214844 28.894531 10.214844 27.023438 L 10.21875 16.640625 L 13.773438 16.640625 Z M 56.054688 30.472656 C 53.402344 30.214844 52.503906 28.597656 52.503906 26.730469 L 52.503906 10.839844 L 56.054688 10.839844 Z M 68.46875 13.136719 C 65.25 -2.628906 34.796875 -3.628906 15.171875 8.382812 L 15.171875 9.707031 C 34.777344 -0.421875 62.585938 -0.359375 65.121094 14.160156 C 65.96875 18.960938 63.277344 23.96875 58.46875 26.84375 L 58.46875 30.609375 C 64.253906 28.480469 70.191406 21.582031 68.46875 13.136719 M 32.789062 40.71875 C 19.242188 41.980469 5.125 40.003906 3.152344 29.363281 C 2.183594 24.121094 4.5625 18.5625 7.714844 15.109375 L 7.714844 13.261719 C 2.039062 18.265625 -1.042969 24.597656 0.730469 32.082031 C 2.996094 41.679688 15.109375 47.117188 33.601562 45.3125 C 40.917969 44.59375 50.492188 42.230469 57.152344 38.558594 L 57.152344 33.339844 C 51.109375 36.957031 41.113281 39.945312 32.789062 40.71875 "/>
<path style=" stroke:none;fill-rule:nonzero;fill:rgb(0%,44.313725%,77.254902%);fill-opacity:1;" d="M 60.160156 11.894531 C 60.160156 11.722656 60.058594 11.667969 59.828125 11.667969 L 59.605469 11.667969 L 59.605469 12.15625 C 59.640625 12.15625 59.800781 12.164062 59.828125 12.164062 C 60.058594 12.164062 60.160156 12.085938 60.160156 11.921875 Z M 60.503906 13.109375 L 60.242188 13.109375 C 60.21875 13.109375 60.199219 13.09375 60.1875 13.074219 L 59.828125 12.464844 C 59.824219 12.449219 59.792969 12.4375 59.777344 12.4375 L 59.617188 12.4375 L 59.617188 13.042969 C 59.617188 13.074219 59.597656 13.109375 59.554688 13.109375 L 59.316406 13.109375 C 59.285156 13.109375 59.257812 13.074219 59.257812 13.042969 L 59.257812 11.507812 C 59.257812 11.421875 59.289062 11.382812 59.367188 11.371094 C 59.449219 11.359375 59.675781 11.351562 59.800781 11.351562 C 60.238281 11.351562 60.5 11.480469 60.5 11.894531 L 60.5 11.921875 C 60.5 12.179688 60.375 12.3125 60.179688 12.378906 L 60.550781 13.011719 C 60.554688 13.023438 60.5625 13.042969 60.5625 13.054688 C 60.5625 13.082031 60.546875 13.109375 60.503906 13.109375 M 59.882812 11.078125 C 59.234375 11.078125 58.710938 11.613281 58.710938 12.257812 C 58.710938 12.90625 59.234375 13.433594 59.882812 13.433594 C 60.523438 13.433594 61.054688 12.90625 61.054688 12.257812 C 61.054688 11.613281 60.523438 11.078125 59.882812 11.078125 M 59.882812 13.679688 C 59.09375 13.679688 58.46875 13.042969 58.46875 12.257812 C 58.46875 11.480469 59.09375 10.839844 59.882812 10.839844 C 60.660156 10.839844 61.296875 11.480469 61.296875 12.257812 C 61.296875 13.042969 60.660156 13.679688 59.882812 13.679688 "/>
</g>
</svg>
