<?xml version="1.0" encoding="UTF-8" standalone="no"?>
<!DOCTYPE svg PUBLIC "-//W3C//DTD SVG 20010904//EN"
              "http://www.w3.org/TR/2001/REC-SVG-20010904/DTD/svg10.dtd">

<svg xmlns="http://www.w3.org/2000/svg"
     width="7.11111in" height="7.11111in"
     viewBox="0 0 512 512">
  <path id="Selección #1"
        fill="#0470f5" stroke="#0470f5" stroke-width="1"
        d="M 191.00,31.53
           C 198.00,31.41 203.58,34.50 206.69,41.00
             208.20,44.15 207.83,47.70 208.79,51.00
             211.08,58.90 217.50,64.42 226.00,62.87
             243.79,59.63 235.02,40.43 248.01,33.44
             250.16,32.28 253.55,31.34 256.00,31.34
             258.68,31.35 261.69,32.28 263.99,33.64
             266.94,35.38 269.41,37.84 270.77,41.01
             272.72,45.53 271.87,62.78 287.00,63.10
             289.78,63.16 292.52,62.44 294.98,61.16
             308.54,54.14 298.37,32.78 319.00,31.39
             321.19,31.24 322.94,31.67 325.00,32.36
             338.90,37.00 334.35,48.53 339.00,55.99
             343.57,63.31 351.22,63.99 359.00,64.00
             359.00,64.00 385.00,64.00 385.00,64.00
             417.97,64.05 447.95,94.03 448.00,127.00
             448.00,127.00 448.00,153.00 448.00,153.00
             448.01,160.93 448.52,168.38 456.00,173.00
             461.25,176.24 466.60,175.56 470.00,176.65
             476.37,178.68 480.66,185.42 480.66,192.00
             480.65,195.16 479.48,198.48 477.57,200.98
             468.57,212.82 450.25,204.56 448.64,223.00
             447.94,230.91 453.75,237.10 461.00,239.21
             461.00,239.21 470.00,240.89 470.00,240.89
             476.12,243.21 480.69,249.40 480.54,256.00
             480.00,279.21 454.13,265.77 449.34,285.00
             447.62,291.93 452.61,299.68 459.00,302.28
             459.00,302.28 470.00,304.68 470.00,304.68
             476.80,307.15 480.87,313.84 480.53,321.00
             479.63,340.00 460.91,332.20 452.39,342.10
             448.86,346.21 448.07,350.79 448.00,356.00
             448.00,356.00 448.00,384.00 448.00,384.00
             447.95,412.95 427.01,439.07 399.00,446.11
             386.18,449.33 369.48,447.84 356.00,448.00
             348.60,448.09 342.22,450.10 338.41,457.00
             335.29,462.68 336.65,465.88 335.35,470.00
             333.04,477.31 325.33,481.17 318.00,480.29
             302.49,478.45 304.44,463.13 302.17,457.99
             299.76,452.52 293.10,447.90 287.00,448.56
             266.67,450.74 277.83,472.62 263.00,479.01
             260.85,479.94 257.34,480.64 255.00,480.53
             248.78,480.24 243.08,475.78 240.89,470.00
             239.63,466.67 239.80,448.39 224.00,448.59
             221.32,448.62 218.28,449.58 216.02,451.00
             203.22,459.00 213.47,479.09 193.00,480.61
             186.23,481.11 179.07,476.39 176.85,470.00
             175.53,466.19 176.13,461.08 173.00,456.00
             168.38,448.52 160.93,448.01 153.00,448.00
             153.00,448.00 127.00,448.00 127.00,448.00
             93.99,447.95 64.05,418.02 64.00,385.00
             64.00,385.00 64.00,357.00 64.00,357.00
             63.91,349.43 62.25,342.29 55.00,338.44
             50.26,335.92 45.85,336.43 42.00,335.20
             35.30,333.07 30.87,325.99 31.39,319.00
             32.93,298.21 54.53,308.99 61.70,295.00
             62.87,292.72 63.56,289.55 63.36,287.00
             61.88,267.10 40.72,277.71 33.44,264.00
             32.29,261.83 31.34,258.46 31.34,256.00
             31.35,252.84 32.52,249.52 34.43,247.02
             43.44,235.18 61.75,243.44 63.36,225.00
             64.06,217.10 58.25,210.89 51.00,208.79
             46.97,207.62 44.44,208.40 41.00,206.99
             35.26,204.66 31.28,198.15 31.35,192.00
             31.38,190.28 31.82,188.61 32.39,187.00
             37.22,173.31 48.77,177.50 55.99,173.00
             63.31,168.43 63.99,160.78 64.00,153.00
             64.00,153.00 64.00,127.00 64.00,127.00
             64.05,93.84 93.84,64.05 127.00,64.00
             127.00,64.00 153.00,64.00 153.00,64.00
             160.35,63.99 167.59,63.45 172.35,56.96
             178.42,48.69 172.97,38.17 185.00,32.99
             186.93,32.16 188.94,31.85 191.00,31.53 Z
           M 131.00,96.09
           C 131.00,96.09 121.00,97.79 121.00,97.79
             110.89,100.68 102.19,109.27 98.47,119.00
             95.26,127.37 96.00,146.46 96.00,156.00
             96.00,156.00 96.00,227.00 96.00,227.00
             96.00,227.00 96.00,376.00 96.00,376.00
             96.02,389.57 100.58,403.43 113.00,410.64
             120.20,414.82 129.79,415.99 138.00,416.00
             138.00,416.00 292.00,416.00 292.00,416.00
             292.00,416.00 378.00,416.00 378.00,416.00
             402.39,415.71 415.96,399.70 416.00,376.00
             416.00,376.00 416.00,222.00 416.00,222.00
             416.00,222.00 416.00,136.00 416.00,136.00
             415.70,110.50 401.66,96.04 376.00,96.09
             376.00,96.09 215.00,96.09 215.00,96.09
             215.00,96.09 131.00,96.09 131.00,96.09 Z
           M 156.00,128.52
           C 156.00,128.52 180.00,128.00 180.00,128.00
             180.00,128.00 221.00,128.00 221.00,128.00
             221.00,128.00 348.00,128.00 348.00,128.00
             369.77,128.03 383.97,143.59 384.00,165.00
             384.00,165.00 384.00,347.00 384.00,347.00
             383.98,362.88 376.53,376.32 361.00,381.91
             355.63,383.85 352.58,383.99 347.00,384.00
             347.00,384.00 165.00,384.00 165.00,384.00
             143.59,383.97 128.03,369.77 128.00,348.00
             128.00,348.00 128.00,186.00 128.00,186.00
             128.00,165.24 124.25,145.80 145.00,133.07
             148.90,130.68 151.64,129.69 156.00,128.52 Z
           M 218.00,232.11
           C 217.69,229.68 217.08,224.03 215.98,222.21
             212.03,215.69 197.70,215.92 191.00,216.00
             173.38,216.22 159.21,230.39 159.16,248.00
             159.16,248.00 159.16,261.00 159.16,261.00
             160.96,270.82 167.68,280.50 177.00,284.39
             186.56,288.39 196.97,288.58 207.00,286.69
             211.13,285.91 216.43,284.86 217.08,279.98
             217.08,279.98 217.08,274.00 217.08,274.00
             217.08,274.00 217.68,264.00 217.68,264.00
             217.68,264.00 217.00,248.00 217.00,248.00
             217.00,248.00 189.00,248.00 189.00,248.00
             189.01,250.30 188.62,254.41 190.60,255.98
             193.14,257.99 199.66,256.01 202.69,258.02
             204.79,259.43 204.89,261.72 204.98,264.00
             205.28,271.25 204.45,276.27 196.00,276.90
             172.55,278.66 165.51,245.92 180.10,232.11
             193.58,219.55 208.16,230.15 218.00,232.11 Z
           M 336.00,217.00
           C 336.00,217.00 336.00,242.00 336.00,242.00
             336.00,248.85 336.96,263.37 333.86,269.00
             328.09,279.47 314.17,279.07 308.23,269.00
             305.82,264.91 306.01,261.53 306.00,257.00
             306.00,257.00 306.00,225.00 306.00,225.00
             305.99,216.51 305.63,214.74 293.00,217.00
             293.00,217.00 293.00,262.00 293.00,262.00
             293.08,268.73 295.25,276.74 300.33,281.47
             310.46,290.93 333.05,290.21 342.82,280.70
             353.93,269.88 349.02,251.64 349.00,238.00
             348.99,234.32 349.95,220.04 347.40,218.02
             345.55,216.56 338.54,217.00 336.00,217.00 Z
           M 247.00,262.00
           C 247.00,262.00 255.00,262.00 255.00,262.00
             260.50,261.97 266.18,261.32 270.99,258.39
             275.15,255.85 277.70,252.40 279.65,248.00
             287.17,231.11 277.03,217.22 259.00,217.00
             241.91,216.80 233.37,214.19 234.32,227.00
             234.32,227.00 234.99,237.00 234.99,237.00
             234.99,237.00 234.32,247.00 234.32,247.00
             234.32,247.00 234.99,257.00 234.99,257.00
             234.99,257.00 234.32,267.00 234.32,267.00
             234.32,267.00 235.05,274.00 235.05,274.00
             235.04,276.27 234.20,284.06 235.05,285.40
             236.67,287.68 244.35,287.00 247.00,287.00
             247.00,287.00 247.00,262.00 247.00,262.00 Z
           M 247.00,227.00
           C 251.40,227.00 258.19,226.40 261.90,228.85
             268.70,233.35 268.70,245.65 261.90,250.15
             258.19,252.60 251.40,252.00 247.00,252.00
             247.00,252.00 247.00,227.00 247.00,227.00 Z" />
</svg>
