<?xml version="1.0" encoding="UTF-8" standalone="no"?>
<!DOCTYPE svg PUBLIC "-//W3C//DTD SVG 20010904//EN"
              "http://www.w3.org/TR/2001/REC-SVG-20010904/DTD/svg10.dtd">

<svg xmlns="http://www.w3.org/2000/svg"
     width="1.38889in" height="1.38889in"
     viewBox="0 0 100 100">
  <path id="Selección"
        fill="#8bc44a" stroke="black" stroke-width="1"
        d="M 34.00,20.00
           C 31.55,18.11 30.06,17.03 28.89,14.00
             28.32,12.53 28.05,10.57 28.15,9.00
             29.10,-6.60 55.67,-0.10 47.55,14.94
             46.23,17.38 45.29,17.79 43.00,19.00
             43.00,19.00 47.04,22.40 47.04,22.40
             47.04,22.40 54.00,23.00 54.00,23.00
             54.00,23.00 77.00,23.00 77.00,23.00
             77.00,23.00 77.00,43.00 77.00,43.00
             77.00,43.00 77.60,52.96 77.60,52.96
             77.60,52.96 81.00,57.00 81.00,57.00
             82.21,54.71 82.62,53.77 85.06,52.45
             100.10,44.33 106.60,70.90 91.00,71.85
             89.41,71.95 87.49,71.67 86.00,71.11
             83.07,70.00 81.23,68.07 79.00,66.00
             75.52,74.25 77.00,90.57 77.00,99.95
             77.00,99.95 49.00,99.95 49.00,99.95
             49.00,99.95 46.06,99.95 46.06,99.95
             38.01,98.49 46.44,92.11 47.16,88.00
             47.76,84.59 45.61,81.62 42.98,79.71
             41.74,78.80 40.14,78.03 38.58,77.99
             34.18,77.88 27.15,83.65 31.00,91.00
             32.19,93.27 35.65,96.87 33.34,98.98
             32.07,100.14 28.66,99.99 27.00,100.00
             27.00,100.00 0.05,100.00 0.05,100.00
             0.05,100.00 0.05,72.00 0.05,72.00
             0.05,72.00 0.05,69.06 0.05,69.06
             1.41,61.61 7.51,69.39 12.00,70.16
             16.47,70.94 22.16,66.14 22.01,61.58
             21.88,57.40 16.46,50.59 10.04,53.49
             7.29,54.73 3.55,59.43 1.02,56.38
             -0.14,54.98 0.01,51.75 0.00,50.00
             0.00,50.00 0.00,22.84 0.00,22.84
             0.00,22.84 29.00,22.84 29.00,22.84
             29.00,22.84 34.00,20.00 34.00,20.00 Z" />
</svg>
