<?xml version="1.0" encoding="UTF-8" standalone="no"?>
<!DOCTYPE svg PUBLIC "-//W3C//DTD SVG 20010904//EN"
              "http://www.w3.org/TR/2001/REC-SVG-20010904/DTD/svg10.dtd">

<svg xmlns="http://www.w3.org/2000/svg"
     width="2.22222in" height="2.22222in"
     viewBox="0 0 200 200">
  <path id="Selección"
        fill="#4ca341" stroke="#4ca341" stroke-width="1"
        d="M 56.00,111.00
           C 56.00,111.00 43.00,110.04 43.00,110.04
             43.00,110.04 29.00,110.04 29.00,110.04
             26.74,110.00 23.32,110.22 21.39,108.98
             19.28,107.62 18.08,104.27 17.23,102.00
             14.22,93.97 14.27,86.16 19.56,79.00
             25.74,70.62 38.77,61.31 48.00,56.31
             48.00,56.31 60.79,50.16 60.79,50.16
             63.79,47.95 64.93,44.14 67.53,41.18
             72.89,35.10 79.39,34.01 87.00,34.00
             87.00,34.00 161.00,34.00 161.00,34.00
             177.80,34.08 184.98,44.07 185.00,60.00
             185.00,60.00 185.00,139.00 185.00,139.00
             184.97,156.54 177.00,165.97 159.00,166.00
             159.00,166.00 88.00,166.00 88.00,166.00
             79.66,165.99 78.62,165.90 72.05,160.35
             70.75,159.26 69.29,158.22 68.57,156.63
             67.86,155.04 68.00,151.79 68.00,150.00
             68.00,150.00 68.00,129.00 68.00,129.00
             68.00,129.00 84.00,133.00 84.00,133.00
             83.27,124.03 79.37,127.32 70.00,121.53
             63.61,117.59 50.97,102.86 50.92,95.00
             50.90,91.73 53.83,89.15 56.00,87.04
             60.59,82.59 65.10,79.83 71.00,77.45
             79.84,73.88 83.30,76.55 84.00,68.00
             67.25,72.44 61.31,73.80 47.00,85.01
             44.68,86.83 40.23,90.15 39.41,93.00
             38.37,96.63 44.28,106.30 47.18,108.40
             49.93,110.38 52.39,109.56 56.00,111.00 Z
           M 162.00,56.00
           C 162.00,56.00 85.00,56.00 85.00,56.00
             85.00,56.00 85.00,68.00 85.00,68.00
             100.08,68.00 110.23,71.82 122.00,81.46
             124.30,83.35 131.01,89.16 131.38,92.00
             131.81,95.23 125.25,100.81 123.00,102.96
             111.64,113.82 100.88,119.99 85.00,120.00
             85.00,120.00 85.00,127.00 85.00,127.00
             97.35,127.00 108.37,125.02 119.00,118.30
             123.15,115.68 127.18,112.83 131.00,109.74
             133.05,108.08 136.35,104.91 139.00,104.63
             141.66,104.35 149.79,109.57 153.00,111.00
             136.96,125.59 106.49,134.00 85.00,134.00
             85.00,134.00 85.00,144.00 85.00,144.00
             85.00,144.00 162.00,144.00 162.00,144.00
             162.00,144.00 162.00,56.00 162.00,56.00 Z
           M 85.00,90.00
           C 85.00,90.00 85.00,107.00 85.00,107.00
             85.04,108.94 84.90,111.64 86.60,113.15
             88.51,114.49 92.79,113.83 95.00,113.15
             102.06,111.69 109.05,106.19 113.91,101.00
             115.61,99.18 118.96,95.63 118.84,93.00
             118.72,90.28 114.90,86.85 113.00,85.09
             103.82,76.60 96.72,75.55 85.00,74.00
             85.00,74.00 85.00,82.00 85.00,82.00
             95.82,82.10 102.50,85.01 109.00,94.00
             109.00,94.00 98.00,102.00 98.00,102.00
             94.99,95.27 92.86,90.91 85.00,90.00 Z
           M 84.00,83.00
           C 77.77,83.30 62.35,88.26 60.81,95.04
             60.21,97.66 62.58,101.77 63.88,104.00
             68.45,111.86 74.97,117.31 84.00,119.00
             83.93,117.05 84.05,115.11 82.98,113.37
             81.09,110.30 65.13,99.98 74.07,92.79
             75.05,92.00 76.85,90.94 78.00,90.41
             80.29,89.36 81.57,89.26 84.00,89.00
             84.00,89.00 84.00,83.00 84.00,83.00 Z
           M 55.00,113.00
           C 55.00,113.00 56.00,119.00 56.00,119.00
             56.00,119.00 28.00,119.00 28.00,119.00
             28.00,119.00 14.00,118.00 14.00,118.00
             14.00,118.00 55.00,118.00 55.00,118.00
             55.00,118.00 55.00,113.00 55.00,113.00 Z
           M 7.00,127.00
           C 7.00,127.00 63.00,127.00 63.00,127.00
             63.00,127.00 63.00,144.00 63.00,144.00
             63.00,144.00 7.00,144.00 7.00,144.00
             7.00,144.00 7.00,127.00 7.00,127.00 Z
           M 43.00,166.00
           C 35.38,164.15 22.35,165.15 14.00,165.00
             12.38,164.97 9.94,165.04 8.60,163.98
             6.37,162.21 6.31,150.76 8.02,148.60
             9.49,146.74 12.87,147.02 15.00,147.00
             15.00,147.00 49.00,147.00 49.00,147.00
             51.66,147.00 59.51,146.52 61.40,148.02
             63.38,149.59 62.99,153.70 63.00,156.00
             53.47,156.09 48.74,158.06 43.00,166.00 Z
           M 59.00,165.00
           C 59.00,165.00 60.00,165.00 60.00,165.00
             60.00,165.00 59.00,166.00 59.00,166.00
             59.00,166.00 59.00,165.00 59.00,165.00 Z
           M 78.00,166.00
           C 78.00,166.00 79.00,166.00 79.00,166.00
             79.00,166.00 78.00,167.00 78.00,167.00
             78.00,167.00 78.00,166.00 78.00,166.00 Z
           M 41.00,186.00
           C 41.00,186.00 14.00,186.00 14.00,186.00
             12.38,185.97 9.94,186.04 8.60,184.98
             6.37,183.21 6.31,171.76 8.02,169.60
             9.49,167.74 12.87,168.02 15.00,168.00
             15.00,168.00 41.00,168.00 41.00,168.00
             38.54,175.60 38.15,178.41 41.00,186.00 Z
           M 56.00,170.00
           C 56.00,170.00 57.00,170.00 57.00,170.00
             57.00,170.00 56.00,171.00 56.00,171.00
             56.00,171.00 56.00,170.00 56.00,170.00 Z
           M 54.00,173.00
           C 54.00,173.00 55.00,173.00 55.00,173.00
             55.00,173.00 54.00,174.00 54.00,174.00
             54.00,174.00 54.00,173.00 54.00,173.00 Z
           M 66.00,175.00
           C 66.00,175.00 67.00,175.00 67.00,175.00
             67.00,175.00 66.00,176.00 66.00,176.00
             66.00,176.00 66.00,175.00 66.00,175.00 Z
           M 51.00,178.00
           C 51.00,178.00 52.00,178.00 52.00,178.00
             52.00,178.00 51.00,179.00 51.00,179.00
             51.00,179.00 51.00,178.00 51.00,178.00 Z
           M 64.00,178.00
           C 64.00,178.00 65.00,178.00 65.00,178.00
             65.00,178.00 64.00,179.00 64.00,179.00
             64.00,179.00 64.00,178.00 64.00,178.00 Z
           M 63.00,180.00
           C 63.00,180.00 64.00,180.00 64.00,180.00
             64.00,180.00 63.00,181.00 63.00,181.00
             63.00,181.00 63.00,180.00 63.00,180.00 Z
           M 80.00,182.00
           C 80.00,182.00 81.00,182.00 81.00,182.00
             81.00,182.00 80.00,183.00 80.00,183.00
             80.00,183.00 80.00,182.00 80.00,182.00 Z
           M 61.00,183.00
           C 61.00,183.00 62.00,183.00 62.00,183.00
             62.00,183.00 61.00,184.00 61.00,184.00
             61.00,184.00 61.00,183.00 61.00,183.00 Z
           M 59.00,186.00
           C 59.00,186.00 60.00,186.00 60.00,186.00
             60.00,186.00 59.00,187.00 59.00,187.00
             59.00,187.00 59.00,186.00 59.00,186.00 Z
           M 42.00,188.00
           C 42.00,188.00 43.00,188.00 43.00,188.00
             43.00,188.00 42.00,189.00 42.00,189.00
             42.00,189.00 42.00,188.00 42.00,188.00 Z
           M 58.00,188.00
           C 58.00,188.00 59.00,188.00 59.00,188.00
             59.00,188.00 58.00,189.00 58.00,189.00
             58.00,189.00 58.00,188.00 58.00,188.00 Z" />
  <path id="Selección #3"
        fill="#262626" stroke="#262626" stroke-width="1"
        d="M 85.00,57.00
           C 85.00,57.00 162.00,57.00 162.00,57.00
             162.00,57.00 162.00,143.00 162.00,143.00
             162.00,143.00 85.00,143.00 85.00,143.00
             85.00,143.00 85.00,134.00 85.00,134.00
             104.84,134.00 123.37,129.03 141.00,119.89
             141.00,119.89 153.00,113.00 153.00,113.00
             150.93,110.41 141.98,102.95 138.58,103.64
             136.90,103.97 129.97,110.26 128.00,111.76
             121.68,116.60 114.57,121.10 107.00,123.64
             103.24,124.91 88.70,128.58 85.99,125.26
             84.90,123.92 85.05,121.63 85.00,120.00
             85.00,120.00 90.00,120.00 90.00,120.00
             108.17,119.78 122.62,104.39 134.00,92.00
             134.00,92.00 121.00,80.29 121.00,80.29
             109.98,71.54 99.10,67.13 85.00,68.00
             85.00,68.00 85.00,57.00 85.00,57.00 Z
           M 56.00,110.00
           C 53.47,110.00 49.50,110.29 47.33,108.98
             43.07,106.40 36.79,94.75 40.36,90.29
             41.45,88.92 45.45,85.84 47.00,84.65
             57.39,76.71 70.64,69.29 84.00,69.00
             84.00,69.00 84.00,74.00 84.00,74.00
             72.67,76.13 67.06,78.10 58.00,85.62
             55.32,87.84 51.23,91.21 51.14,95.00
             50.98,102.15 62.07,113.50 66.00,119.00
             66.00,119.00 56.00,118.00 56.00,118.00
             56.00,118.00 56.00,110.00 56.00,110.00 Z
           M 85.00,75.00
           C 96.35,75.01 103.03,77.13 112.00,84.47
             114.33,86.37 118.33,89.71 118.26,93.00
             118.19,95.88 114.88,99.06 112.98,101.00
             107.70,106.43 102.51,111.05 95.00,112.95
             92.66,113.70 88.66,114.45 86.57,112.95
             84.59,111.28 85.00,107.29 85.00,105.00
             85.00,105.00 85.00,90.00 85.00,90.00
             92.29,91.55 95.53,96.31 98.00,103.00
             100.10,101.00 107.02,95.55 107.38,93.02
             107.74,90.51 104.76,88.46 102.99,87.17
             96.71,82.58 92.49,82.02 85.00,82.00
             85.00,82.00 85.00,75.00 85.00,75.00 Z
           M 84.00,119.00
           C 74.15,115.71 69.81,113.26 64.26,104.00
             62.86,101.67 60.55,97.79 61.40,95.01
             63.42,88.37 77.70,83.57 84.00,83.00
             84.00,83.00 84.00,89.00 84.00,89.00
             81.68,89.13 80.21,89.13 78.00,90.09
             76.72,90.64 75.13,91.63 74.06,92.53
             64.53,100.54 80.42,109.59 83.01,113.59
             84.08,115.26 83.94,117.12 84.00,119.00 Z
           M 68.00,121.00
           C 68.00,121.00 84.00,127.00 84.00,127.00
             84.00,127.00 84.00,133.00 84.00,133.00
             80.34,132.51 72.24,131.43 69.99,128.35
             69.09,127.12 68.44,122.77 68.00,121.00 Z
           M 2.00,192.00
           C 2.00,192.00 3.00,192.00 3.00,192.00
             3.00,192.00 2.00,193.00 2.00,193.00
             2.00,193.00 2.00,192.00 2.00,192.00 Z" />
  <path id="Selección #5"
        fill="#4f4f4f" stroke="#4f4f4f" stroke-width="1"
        d="M 46.00,193.00
           C 39.54,194.84 19.85,194.02 12.00,194.00
             9.23,193.99 5.56,194.29 3.31,192.40
             0.62,190.13 1.01,186.18 1.00,183.00
             1.00,183.00 1.00,127.00 1.00,127.00
             1.19,113.68 9.88,118.94 22.00,119.00
             22.00,119.00 54.00,119.00 54.00,119.00
             56.66,119.00 64.51,118.52 66.40,120.02
             68.26,121.49 67.98,124.87 68.00,127.00
             68.00,127.00 68.00,157.00 68.00,157.00
             68.00,157.00 62.00,156.00 62.00,156.00
             62.00,156.00 62.00,147.00 62.00,147.00
             62.00,147.00 8.00,147.00 8.00,147.00
             8.00,147.00 8.00,165.00 8.00,165.00
             8.00,165.00 42.00,165.00 42.00,165.00
             39.88,168.17 38.70,167.93 35.00,168.00
             35.00,168.00 8.00,168.00 8.00,168.00
             8.00,168.00 8.00,186.00 8.00,186.00
             8.00,186.00 29.00,186.00 29.00,186.00
             29.00,186.00 40.00,187.02 40.00,187.02
             40.00,187.02 46.00,193.00 46.00,193.00 Z
           M 62.00,127.00
           C 62.00,127.00 8.00,127.00 8.00,127.00
             8.00,127.00 8.00,144.00 8.00,144.00
             8.00,144.00 62.00,144.00 62.00,144.00
             62.00,144.00 62.00,127.00 62.00,127.00 Z
           M 59.00,166.00
           C 59.00,166.00 60.00,173.00 60.00,173.00
             60.00,173.00 68.00,173.00 68.00,173.00
             68.00,173.00 58.00,188.00 58.00,188.00
             58.00,188.00 58.00,181.00 58.00,181.00
             58.00,181.00 50.00,181.00 50.00,181.00
             50.00,181.00 59.00,166.00 59.00,166.00 Z" />
  <path id="Selección #9"
        fill="#8e8e8e" stroke="#8e8e8e" stroke-width="1"
        d="M 69.00,39.00
           C 69.00,39.00 70.00,39.00 70.00,39.00
             70.00,39.00 69.00,40.00 69.00,40.00
             69.00,40.00 69.00,39.00 69.00,39.00 Z
           M 67.00,41.00
           C 67.00,41.00 68.00,41.00 68.00,41.00
             68.00,41.00 67.00,42.00 67.00,42.00
             67.00,42.00 67.00,41.00 67.00,41.00 Z
           M 56.00,52.00
           C 56.00,52.00 57.00,52.00 57.00,52.00
             57.00,52.00 56.00,53.00 56.00,53.00
             56.00,53.00 56.00,52.00 56.00,52.00 Z
           M 14.00,110.00
           C 14.00,110.00 56.00,110.00 56.00,110.00
             56.00,110.00 56.00,119.00 56.00,119.00
             56.00,119.00 14.00,119.00 14.00,119.00
             14.00,119.00 14.00,110.00 14.00,110.00 Z" />
  <path id="Selección #6"
        fill="#fecd38" stroke="#fecd38" stroke-width="1"
        d="M 59.00,156.60
           C 68.10,156.74 77.24,161.92 80.20,171.00
             81.38,174.20 80.88,177.79 80.20,181.00
             77.69,190.86 71.34,196.80 61.00,197.39
             42.52,198.46 32.83,175.27 45.38,162.33
             49.34,158.24 53.58,157.17 59.00,156.60 Z
           M 60.00,164.00
           C 60.00,164.00 49.00,182.00 49.00,182.00
             49.00,182.00 57.00,182.00 57.00,182.00
             57.00,182.00 57.00,189.00 57.00,189.00
             62.06,186.16 66.86,177.63 68.00,172.00
             68.00,172.00 60.00,172.00 60.00,172.00
             60.00,172.00 60.00,164.00 60.00,164.00 Z" />
</svg>
